HIERARCHY
ROOT Hips
{
	OFFSET 0.000000 0.000000 0.000000
	CHANNELS 6 Xposition Yposition Zposition Zrotation Yrotation Xrotation 
	JOINT LeftUpLeg_virtual
	{
		OFFSET 0.000000 0.000000 0.000000
		CHANNELS 3 Zrotation Yrotation Xrotation
		JOINT LeftUpLeg
		{
			OFFSET 10.205400 -3.823500 0.155100
			CHANNELS 3 Zrotation Yrotation Xrotation
			JOINT LeftLeg
			{
				OFFSET 0.708757 -12.982077 0.567790
				CHANNELS 3 Zrotation Yrotation Xrotation
				JOINT LeftFoot
				{
					OFFSET -0.708756 -10.717838 -2.184338
					CHANNELS 3 Zrotation Yrotation Xrotation
					JOINT LeftToeBase
					{
						OFFSET 0.108149 -7.191104 7.560241
						CHANNELS 3 Zrotation Yrotation Xrotation
						End Site
						{
							OFFSET 0.000000 0.000000 0.000000
						}
					}
				}
			}
		}
	}
	JOINT RightUpLeg_virtual
	{
		OFFSET 0.000000 0.000000 0.000000
		CHANNELS 3 Zrotation Yrotation Xrotation
		JOINT RightUpLeg
		{
			OFFSET -10.205400 -3.823500 0.005500
			CHANNELS 3 Zrotation Yrotation Xrotation
			JOINT RightLeg
			{
				OFFSET -0.708756 -12.982134 0.610632
				CHANNELS 3 Zrotation Yrotation Xrotation
				JOINT RightFoot
				{
					OFFSET 0.708754 -10.717769 -1.945823
					CHANNELS 3 Zrotation Yrotation Xrotation
					JOINT RightToeBase
					{
						OFFSET -0.108140 -7.191069 7.372968
						CHANNELS 3 Zrotation Yrotation Xrotation
						End Site
						{
							OFFSET 0.000000 0.000000 0.000000
						}
					}
				}
			}
		}
	}
	JOINT Spine_virtual
	{
		OFFSET 0.000000 0.000000 0.000000
		CHANNELS 3 Zrotation Yrotation Xrotation
		JOINT Spine
		{
			OFFSET 0.000000 6.876099 0.125700
			CHANNELS 3 Zrotation Yrotation Xrotation
			JOINT Spine1
			{
				OFFSET 0.000000 8.022060 0.146608
				CHANNELS 3 Zrotation Yrotation Xrotation
				JOINT Spine2
				{
					OFFSET 0.000000 9.168068 0.167552
					CHANNELS 3 Zrotation Yrotation Xrotation
					JOINT Neck_virtual
					{
						OFFSET 0.000000 0.000000 0.000000
						CHANNELS 3 Zrotation Yrotation Xrotation
						JOINT Neck
						{
							OFFSET 0.000000 10.314075 0.188496
							CHANNELS 3 Zrotation Yrotation Xrotation
							JOINT Head
							{
								OFFSET 0.000000 7.643700 -2.377400
								CHANNELS 3 Zrotation Yrotation Xrotation
								End Site
								{
									OFFSET 0.000000 0.000000 0.000000
								}
							}
						}
					}
					JOINT LeftShoulder_virtual
					{
						OFFSET 0.000000 0.000000 0.000000
						CHANNELS 3 Zrotation Yrotation Xrotation
						JOINT LeftShoulder
						{
							OFFSET 4.392200 8.824978 0.174984
							CHANNELS 3 Zrotation Yrotation Xrotation
							JOINT LeftArm
							{
								OFFSET 8.771219 -2.981674 -0.026999
								CHANNELS 3 Zrotation Yrotation Xrotation
								JOINT LeftForeArm
								{
									OFFSET 8.512804 0.000000 -0.000000
									CHANNELS 3 Zrotation Yrotation Xrotation
									JOINT LeftHand
									{
										OFFSET 18.484802 0.000000 -0.000000
										CHANNELS 3 Zrotation Yrotation Xrotation
										End Site
										{
											OFFSET 0.000000 0.000000 0.000000
										}
									}
								}
							}
						}
					}
					JOINT RightShoulder_virtual
					{
						OFFSET 0.000000 0.000000 0.000000
						CHANNELS 3 Zrotation Yrotation Xrotation
						JOINT RightShoulder
						{
							OFFSET -4.392200 8.824993 0.141379
							CHANNELS 3 Zrotation Yrotation Xrotation
							JOINT RightArm
							{
								OFFSET -8.771282 -2.981682 -0.094208
								CHANNELS 3 Zrotation Yrotation Xrotation
								JOINT RightForeArm
								{
									OFFSET -8.494598 0.000000 0.000000
									CHANNELS 3 Zrotation Yrotation Xrotation
									JOINT RightHand
									{
										OFFSET -18.483803 0.000000 0.000001
										CHANNELS 3 Zrotation Yrotation Xrotation
										End Site
										{
											OFFSET 0.000000 0.000000 0.000000
										}
									}
								}
							}
						}
					}
				}
			}
		}
	}
}
MOTION
Frames: 10
Frame Time: 0.033333
-6.820660 36.324322 -15.089704 -179.678754 -4.598085 -179.017223 -3.226204 -1.348942 17.367643 1.970599 1.497013 -14.175089 5.516600 0.483012 16.682133 1.020421 -0.515158 6.527245 0.000000 0.000000 0.000000 5.882305 -1.607024 16.859245 -8.415268 0.185180 -15.689530 -4.945693 4.207704 16.509315 12.554400 -0.103416 7.152427 0.000000 0.000000 0.000000 1.100763 1.422034 2.524902 0.366538 -0.394701 -13.057161 -0.198678 -2.965727 7.073002 -0.005909 -0.110960 0.078468 -0.642489 -0.535894 8.546295 -0.935481 2.016564 22.531566 0.000000 0.000000 0.000000 1.305325 0.176358 5.533474 -17.613924 -6.648761 1.807417 -50.246287 18.920213 -1.823414 1.375007 -33.810990 1.425086 0.000000 0.000000 0.000000 -3.298057 1.109996 4.872977 27.244668 2.026305 4.823828 47.074193 -19.723566 7.896279 -3.082718 34.836711 -2.395382 0.000000 0.000000 0.000000 
-6.834155 36.320892 -15.087392 -179.530033 -4.709825 -178.706695 -3.638718 -1.026433 17.670101 2.061837 1.500345 -13.856291 5.827265 -0.820409 16.851625 1.093816 -0.378620 7.096297 0.000000 0.000000 0.000000 6.658506 -2.241034 17.091147 -9.439198 -0.166007 -15.321151 -4.424538 3.914146 16.686241 11.936614 -0.428308 7.393424 0.000000 0.000000 0.000000 1.215625 1.304930 2.129413 0.439699 -0.386380 -13.020495 -0.201785 -2.998311 7.169989 -0.040819 -0.177176 0.024344 -0.601620 -0.587630 8.552246 -0.938501 2.008990 22.360706 0.000000 0.000000 0.000000 1.339719 0.113112 5.416277 -17.687010 -6.491070 1.881189 -50.408466 18.841350 -2.144678 1.301929 -33.943875 1.397262 0.000000 0.000000 0.000000 -3.252207 1.132176 4.868756 27.277774 2.035407 4.779843 46.909630 -19.775307 7.986486 -2.938470 34.829853 -2.289988 0.000000 0.000000 0.000000 
-6.845929 36.320152 -15.099738 -179.565878 -4.613727 -178.691696 -3.690224 -1.032437 17.722246 2.046946 1.472746 -13.913124 5.749445 -0.817348 16.877370 1.098653 -0.275301 7.101967 0.000000 0.000000 0.000000 6.585998 -2.302503 17.082363 -9.277609 -0.186389 -15.340234 -4.678264 4.110383 16.625102 12.131599 -0.415412 7.368604 0.000000 0.000000 0.000000 1.210729 1.277322 2.310407 0.449350 -0.313606 -13.254109 -0.212116 -2.976109 7.016006 -0.032752 -0.172870 0.182049 -0.609483 -0.574985 8.524336 -0.875912 1.993705 22.439649 0.000000 0.000000 0.000000 1.341873 0.054920 5.473680 -17.765291 -6.392474 1.824919 -50.401130 18.633617 -2.059860 1.284008 -34.398738 1.269663 0.000000 0.000000 0.000000 -3.280780 1.130346 4.903738 27.385015 1.955325 4.796480 46.866764 -19.761781 8.103041 -3.097410 34.955655 -2.431179 0.000000 0.000000 0.000000 
-6.854864 36.319786 -15.121433 -179.459150 -4.543603 -178.677339 -3.695482 -0.999010 17.823901 2.193679 1.499203 -14.034635 5.680856 -0.937934 16.906976 1.136807 -0.117751 7.075506 0.000000 0.000000 0.000000 6.579652 -2.334363 17.119142 -8.924481 -0.224902 -15.405121 -5.185706 4.347383 16.565242 12.217933 -0.385494 7.412212 0.000000 0.000000 0.000000 1.285902 1.311892 2.333004 0.487343 -0.222661 -13.356790 -0.216091 -3.067974 6.988558 0.001710 -0.098848 0.128804 -0.728383 -0.495433 8.653897 -0.771546 1.925892 22.556386 0.000000 0.000000 0.000000 1.236431 -0.036769 5.663934 -17.852072 -6.361819 1.738873 -50.219516 18.203612 -1.480674 1.262502 -34.924444 1.148007 0.000000 0.000000 0.000000 -3.402970 1.128175 4.982239 27.486505 2.032826 4.767308 46.931623 -19.934529 8.207758 -3.180764 35.046920 -2.473388 0.000000 0.000000 0.000000 
-6.856949 36.321636 -15.148192 -179.522493 -4.483246 -178.641480 -3.806880 -0.934883 17.949583 2.286244 1.510912 -14.193315 5.496432 -1.067846 16.933601 1.148733 0.027818 7.043193 0.000000 0.000000 0.000000 6.520720 -2.340728 17.191361 -8.854506 -0.263532 -15.516117 -5.258637 4.589465 16.575785 12.248163 -0.536842 7.471697 0.000000 0.000000 0.000000 1.199840 1.281612 2.171642 0.490616 -0.245901 -13.248833 -0.233241 -2.899871 7.179593 -0.022181 -0.122359 0.140520 -0.607687 -0.594734 8.549619 -0.467122 1.956657 22.400430 0.000000 0.000000 0.000000 1.297381 -0.050675 5.475600 -17.931567 -6.355515 1.722117 -49.815411 17.600136 -0.314639 1.053281 -35.624634 1.194946 0.000000 0.000000 0.000000 -3.339230 1.022721 4.796144 27.629220 2.122591 4.784789 46.737878 -19.897678 8.342431 -3.091825 35.053770 -2.330018 0.000000 0.000000 0.000000 
-6.855922 36.325428 -15.179132 -179.567381 -4.495914 -178.627342 -3.894394 -0.863710 18.077656 2.379854 1.527613 -14.355733 5.302437 -1.365216 16.953624 1.273671 0.269779 7.034218 0.000000 0.000000 0.000000 6.569481 -2.362146 17.284279 -9.338632 -0.306448 -15.645598 -4.519649 4.410412 16.713425 12.290244 -0.825374 7.491474 0.000000 0.000000 0.000000 1.133488 1.285216 2.296519 0.465926 -0.272639 -13.362991 -0.231129 -2.916334 7.126837 -0.018437 -0.123068 0.182775 -0.595924 -0.638535 8.587949 -0.210315 1.914558 22.368847 0.000000 0.000000 0.000000 1.277639 -0.110541 5.506173 -18.023133 -6.393123 1.755400 -49.120846 16.855155 1.394507 0.826512 -36.562385 1.276012 0.000000 0.000000 0.000000 -3.357332 1.044859 4.805205 27.781757 2.228267 4.812798 46.593795 -19.874368 8.494533 -3.227376 35.164881 -2.421904 0.000000 0.000000 0.000000 
-6.857347 36.329929 -15.214728 -179.514461 -4.557939 -178.621946 -3.879453 -0.781951 18.204049 2.580389 1.480688 -14.525432 5.175582 -1.259787 17.005918 1.141292 0.307401 7.008079 0.000000 0.000000 0.000000 6.617299 -2.351127 17.387828 -9.232543 -0.369869 -15.797825 -4.549595 4.581629 16.875888 12.195692 -0.964659 7.591208 0.000000 0.000000 0.000000 1.166736 1.292658 2.379642 0.460113 -0.321975 -13.368137 -0.233192 -2.920264 7.098416 -0.030753 -0.129397 0.228292 -0.608882 -0.655844 8.588115 0.059337 1.852934 22.222659 0.000000 0.000000 0.000000 1.240668 -0.138675 5.448765 -18.117589 -6.456267 1.815849 -48.325043 16.003468 3.225017 0.674030 -37.498558 1.308576 0.000000 0.000000 0.000000 -3.386389 0.939058 4.803013 27.939080 2.344431 4.828998 46.454791 -19.770749 8.721212 -3.310158 35.333579 -2.417629 0.000000 0.000000 0.000000 
-6.858377 36.330711 -15.233881 -179.427130 -4.635825 -178.617315 -3.788098 -0.666886 18.300696 2.747717 1.415704 -14.722835 5.025934 -1.081639 17.086292 0.970470 0.316445 6.982681 0.000000 0.000000 0.000000 6.657840 -2.274757 17.472047 -8.926158 -0.435427 -15.971533 -4.778666 4.853996 17.107587 12.044252 -1.107356 7.713610 0.000000 0.000000 0.000000 1.240032 1.339249 2.361471 0.455690 -0.399846 -13.229795 -0.230172 -2.935933 7.164332 -0.060257 -0.136874 0.209224 -0.654765 -0.622937 8.564731 0.302764 1.758604 21.975335 0.000000 0.000000 0.000000 1.216393 -0.142211 5.368676 -18.195352 -6.564225 1.865889 -47.525013 15.159151 4.803100 0.425096 -38.296386 1.447869 0.000000 0.000000 0.000000 -3.422335 0.949615 4.743749 28.075254 2.524180 4.856530 46.260687 -19.658589 9.127719 -3.445787 35.603526 -2.479571 0.000000 0.000000 0.000000 
-6.854080 36.333279 -15.226230 -179.453440 -4.736385 -178.626153 -3.726310 -0.532229 18.371220 2.835063 1.314694 -14.968226 4.842562 -0.916972 17.218227 0.791442 0.326048 6.980540 0.000000 0.000000 0.000000 6.722507 -2.176799 17.549732 -9.062237 -0.555134 -16.175860 -4.478918 4.916592 17.419899 11.948444 -1.303349 7.785826 0.000000 0.000000 0.000000 1.241412 1.435835 2.525937 0.411794 -0.446791 -13.088591 -0.217109 -2.926583 7.086496 -0.030036 -0.124239 0.269016 -0.598386 -0.708076 8.531530 0.658858 1.733370 21.563131 0.000000 0.000000 0.000000 1.185122 -0.058067 5.388620 -18.299911 -6.742920 1.897521 -46.868942 14.416543 5.790886 0.198818 -39.051279 1.582378 0.000000 0.000000 0.000000 -3.413129 0.933880 4.685532 28.124791 2.555550 4.872424 46.098395 -19.557463 9.440051 -3.635691 36.157003 -2.582095 0.000000 0.000000 0.000000 
-6.836486 36.342491 -15.156195 -179.410505 -4.845338 -178.649813 -3.622679 -0.438885 18.421973 2.965843 1.207406 -15.310055 4.687911 -0.763474 17.419735 0.641611 0.374227 6.999051 0.000000 0.000000 0.000000 6.816084 -2.069378 17.584660 -8.987908 -0.704399 -16.443629 -4.415589 5.079329 17.722526 11.797740 -1.410708 7.878440 0.000000 0.000000 0.000000 1.328071 1.539462 2.594112 0.394329 -0.485383 -12.659398 -0.189050 -2.897921 7.146525 -0.028026 -0.106427 0.145346 -0.630049 -0.668875 8.520851 0.872229 1.619217 20.787688 0.000000 0.000000 0.000000 1.117777 -0.167902 5.317868 -18.339954 -6.816592 1.988920 -46.393582 13.756831 6.243831 0.041836 -39.604053 1.642823 0.000000 0.000000 0.000000 -3.481617 0.881928 4.636543 28.012472 2.657528 4.903897 45.973313 -19.418622 10.072759 -3.865867 36.703722 -2.745629 0.000000 0.000000 0.000000 
